<svg width="136" height="43" viewBox="0 0 136 43" fill="none" xmlns="http://www.w3.org/2000/svg">
<path d="M21.2945 0C19.634 0 18.0178 0.190045 16.4674 0.550338C8.5829 2.37714 2.37714 8.5829 0.550338 16.4666C0.190045 18.0178 0 19.634 0 21.2945C0 33.0551 9.53392 42.589 21.2945 42.589C22.955 42.589 24.5712 42.399 26.1225 42.0387C34.0062 40.2119 40.2119 34.0069 42.0395 26.124C42.3998 24.5728 42.5898 22.9558 42.5898 21.2945C42.5898 9.53391 33.0551 0 21.2945 0ZM21.2945 34.6301C19.7227 34.6301 18.215 34.3585 16.815 33.8589C13.0537 32.5175 10.0724 29.5361 8.73098 25.7748C8.23132 24.3748 7.95971 22.8664 7.95971 21.2945C7.95971 13.9295 13.9295 7.95892 21.2945 7.95892C22.8664 7.95892 24.374 8.23052 25.774 8.73018C29.5353 10.0716 32.5175 13.0529 33.8589 16.8142C34.3585 18.2142 34.6301 19.7227 34.6301 21.2945C34.6301 28.6596 28.6596 34.6301 21.2945 34.6301Z" fill="url(#paint0_linear_4003_441)"/>
<path d="M21.2946 12.6998C16.5482 12.6998 12.6998 16.5482 12.6998 21.2945C12.6998 26.0409 16.5482 29.8893 21.2946 29.8893C26.041 29.8893 29.8894 26.0409 29.8894 21.2945C29.8894 16.5482 26.0418 12.6998 21.2946 12.6998ZM21.2946 26.4915C18.4249 26.4915 16.0977 24.165 16.0977 21.2945C16.0977 18.4241 18.4249 16.0976 21.2946 16.0976C24.1643 16.0976 26.4915 18.4241 26.4915 21.2945C26.4915 24.165 24.1651 26.4915 21.2946 26.4915Z" fill="#FEFCFE"/>
<path d="M25.774 8.73026C24.374 8.2306 22.8663 7.959 21.2945 7.959C13.9295 7.959 7.95967 13.9296 7.95967 21.2946C7.95967 22.8664 8.23127 24.3749 8.73093 25.7749C7.02924 25.1319 5.43365 24.1255 4.06375 22.7556C2.26624 20.9581 1.09509 18.7718 0.550293 16.4667C2.3771 8.58298 8.58286 2.37722 16.4673 0.550415C18.7716 1.09521 20.9579 2.26636 22.7555 4.06387C24.1246 5.43298 25.131 7.02857 25.774 8.73026Z" fill="url(#paint1_linear_4003_441)"/>
<path d="M42.0394 26.1242C40.2118 34.0071 34.0061 40.212 26.1224 42.0388C23.8181 41.494 21.6318 40.3229 19.8343 38.5254C18.4644 37.1555 17.4579 35.5599 16.8149 33.859C18.2149 34.3586 19.7226 34.6302 21.2945 34.6302C28.6595 34.6302 34.6301 28.6597 34.6301 21.2946C34.6301 19.7228 34.3585 18.2143 33.8588 16.8143C35.5597 17.4573 37.1553 18.4638 38.5252 19.8337C40.3227 21.6312 41.4946 23.8191 42.0394 26.1242Z" fill="url(#paint2_linear_4003_441)"/>
<path d="M10.7614 36.2851C13.2226 36.2851 15.2179 34.2898 15.2179 31.8286C15.2179 29.3673 13.2226 27.372 10.7614 27.372C8.30008 27.372 6.30481 29.3673 6.30481 31.8286C6.30481 34.2898 8.30008 36.2851 10.7614 36.2851Z" fill="url(#paint3_linear_4003_441)"/>
<path d="M31.8673 15.1791C34.3286 15.1791 36.3239 13.1838 36.3239 10.7225C36.3239 8.26126 34.3286 6.26599 31.8673 6.26599C29.406 6.26599 27.4108 8.26126 27.4108 10.7225C27.4108 13.1838 29.406 15.1791 31.8673 15.1791Z" fill="url(#paint4_linear_4003_441)"/>
<path d="M135.765 17.2824V19.6351H128.346V17.2824H135.765ZM130.177 14.1904H133.219V26.3064C133.219 26.7153 133.281 27.029 133.404 27.2474C133.533 27.4603 133.701 27.6059 133.908 27.6844C134.115 27.7628 134.345 27.802 134.597 27.802C134.787 27.802 134.961 27.788 135.118 27.76C135.28 27.732 135.404 27.7068 135.488 27.6844L136 30.0622C135.838 30.1182 135.605 30.1798 135.303 30.247C135.006 30.3142 134.642 30.3535 134.21 30.3647C133.449 30.3871 132.762 30.2722 132.152 30.0202C131.541 29.7625 131.057 29.3648 130.698 28.8271C130.345 28.2893 130.172 27.6171 130.177 26.8105V14.1904Z" fill="#D4D4D8"/>
<path d="M123.151 30.1883V17.2825H126.193V30.1883H123.151ZM124.68 15.4509C124.198 15.4509 123.784 15.2912 123.437 14.9719C123.089 14.6471 122.916 14.2578 122.916 13.804C122.916 13.3447 123.089 12.9554 123.437 12.6361C123.784 12.3112 124.198 12.1488 124.68 12.1488C125.167 12.1488 125.582 12.3112 125.924 12.6361C126.271 12.9554 126.445 13.3447 126.445 13.804C126.445 14.2578 126.271 14.6471 125.924 14.9719C125.582 15.2912 125.167 15.4509 124.68 15.4509Z" fill="#D4D4D8"/>
<path d="M108.382 30.1883V12.9806H111.424V19.4167H111.55C111.707 19.103 111.928 18.7697 112.214 18.4168C112.499 18.0583 112.886 17.753 113.373 17.501C113.86 17.2433 114.482 17.1145 115.238 17.1145C116.235 17.1145 117.134 17.3693 117.936 17.8791C118.742 18.3832 119.381 19.131 119.851 20.1225C120.327 21.1083 120.565 22.3182 120.565 23.7522C120.565 25.1694 120.333 26.3737 119.868 27.3651C119.403 28.3566 118.77 29.1128 117.969 29.6337C117.168 30.1547 116.261 30.4151 115.247 30.4151C114.507 30.4151 113.894 30.2919 113.407 30.0454C112.919 29.799 112.527 29.5021 112.23 29.1548C111.939 28.8019 111.712 28.4686 111.55 28.155H111.373V30.1883H108.382ZM111.365 23.7354C111.365 24.57 111.483 25.301 111.718 25.9284C111.959 26.5557 112.303 27.0459 112.751 27.3988C113.205 27.746 113.754 27.9197 114.398 27.9197C115.07 27.9197 115.633 27.7404 116.087 27.382C116.541 27.0179 116.882 26.5221 117.112 25.8948C117.347 25.2618 117.465 24.542 117.465 23.7354C117.465 22.9344 117.35 22.223 117.12 21.6012C116.891 20.9795 116.549 20.4922 116.095 20.1393C115.642 19.7864 115.076 19.6099 114.398 19.6099C113.748 19.6099 113.197 19.7808 112.743 20.1225C112.289 20.4641 111.945 20.9431 111.709 21.5592C111.48 22.1754 111.365 22.9008 111.365 23.7354Z" fill="#D4D4D8"/>
<path d="M98.8666 30.1882V17.2824H101.816V19.4334H101.95C102.185 18.6884 102.589 18.1143 103.16 17.711C103.737 17.302 104.395 17.0976 105.135 17.0976C105.303 17.0976 105.49 17.106 105.698 17.1228C105.91 17.134 106.087 17.1536 106.227 17.1816V19.9795C106.098 19.9347 105.894 19.8955 105.614 19.8619C105.339 19.8227 105.073 19.8031 104.815 19.8031C104.261 19.8031 103.762 19.9235 103.32 20.1644C102.883 20.3997 102.538 20.7273 102.286 21.1475C102.034 21.5676 101.908 22.0521 101.908 22.601V30.1882H98.8666Z" fill="#D4D4D8"/>
<path d="M90.1009 30.4404C88.8406 30.4404 87.7483 30.1631 86.824 29.6086C85.8998 29.054 85.1828 28.2782 84.6731 27.2812C84.1689 26.2841 83.9169 25.119 83.9169 23.7858C83.9169 22.4527 84.1689 21.2848 84.6731 20.2821C85.1828 19.2795 85.8998 18.5009 86.824 17.9463C87.7483 17.3918 88.8406 17.1145 90.1009 17.1145C91.3612 17.1145 92.4535 17.3918 93.3777 17.9463C94.302 18.5009 95.0162 19.2795 95.5203 20.2821C96.03 21.2848 96.2849 22.4527 96.2849 23.7858C96.2849 25.119 96.03 26.2841 95.5203 27.2812C95.0162 28.2782 94.302 29.054 93.3777 29.6086C92.4535 30.1631 91.3612 30.4404 90.1009 30.4404ZM90.1177 28.0037C90.8011 28.0037 91.3724 27.8161 91.8317 27.4408C92.2911 27.0599 92.6327 26.5502 92.8568 25.9116C93.0865 25.273 93.2013 24.5616 93.2013 23.7774C93.2013 22.9876 93.0865 22.2734 92.8568 21.6349C92.6327 20.9907 92.2911 20.4782 91.8317 20.0973C91.3724 19.7164 90.8011 19.5259 90.1177 19.5259C89.4175 19.5259 88.835 19.7164 88.37 20.0973C87.9107 20.4782 87.5662 20.9907 87.3366 21.6349C87.1125 22.2734 87.0005 22.9876 87.0005 23.7774C87.0005 24.5616 87.1125 25.273 87.3366 25.9116C87.5662 26.5502 87.9107 27.0599 88.37 27.4408C88.835 27.8161 89.4175 28.0037 90.1177 28.0037Z" fill="#D4D4D8"/>
<path d="M79.4828 30.3731C78.973 30.3731 78.5361 30.1938 78.172 29.8354C77.8079 29.4769 77.6287 29.0399 77.6343 28.5246C77.6287 28.0205 77.8079 27.5892 78.172 27.2307C78.5361 26.8722 78.973 26.6929 79.4828 26.6929C79.9757 26.6929 80.4042 26.8722 80.7683 27.2307C81.138 27.5892 81.3256 28.0205 81.3312 28.5246C81.3256 28.8663 81.236 29.1772 81.0624 29.4573C80.8943 29.7373 80.6703 29.9614 80.3902 30.1294C80.1157 30.2919 79.8133 30.3731 79.4828 30.3731Z" fill="#D4D4D8"/>
<path d="M66.2324 22.6263V30.1883H63.1908V17.2825H66.098V19.4755H66.2492C66.5461 18.7529 67.0194 18.1788 67.6692 17.7531C68.3245 17.3274 69.1339 17.1145 70.0974 17.1145C70.988 17.1145 71.7638 17.305 72.4248 17.6859C73.0914 18.0667 73.6067 18.6185 73.9708 19.3411C74.3405 20.0637 74.5226 20.9403 74.517 21.971V30.1883H71.4754V22.4415C71.4754 21.5789 71.2513 20.9039 70.8032 20.4166C70.3607 19.9292 69.7473 19.6856 68.9631 19.6856C68.431 19.6856 67.9576 19.8032 67.5431 20.0385C67.1342 20.2681 66.8121 20.6014 66.5769 21.0383C66.3472 21.4752 66.2324 22.0046 66.2324 22.6263Z" fill="#D4D4D8"/>
<path d="M57.0215 30.1883V17.2825H60.0631V30.1883H57.0215ZM58.5507 15.4509C58.069 15.4509 57.6545 15.2912 57.3072 14.9719C56.9599 14.6471 56.7863 14.2578 56.7863 13.804C56.7863 13.3447 56.9599 12.9554 57.3072 12.6361C57.6545 12.3112 58.069 12.1488 58.5507 12.1488C59.038 12.1488 59.4526 12.3112 59.7942 12.6361C60.1415 12.9554 60.3152 13.3447 60.3152 13.804C60.3152 14.2578 60.1415 14.6471 59.7942 14.9719C59.4526 15.2912 59.038 15.4509 58.5507 15.4509Z" fill="#D4D4D8"/>
<defs>
<linearGradient id="paint0_linear_4003_441" x1="36.1481" y1="7.25892" x2="6.90339" y2="34.8938" gradientUnits="userSpaceOnUse">
<stop stop-color="#F38856"/>
<stop offset="0.23" stop-color="#F0625C"/>
<stop offset="1" stop-color="#5C3DAB"/>
</linearGradient>
<linearGradient id="paint1_linear_4003_441" x1="19.9467" y1="3.61014" x2="3.31228" y2="20.1551" gradientUnits="userSpaceOnUse">
<stop stop-color="#F67986"/>
<stop offset="1" stop-color="#8951BA"/>
</linearGradient>
<linearGradient id="paint2_linear_4003_441" x1="38.9718" y1="22.7374" x2="22.3373" y2="39.2832" gradientUnits="userSpaceOnUse">
<stop stop-color="#F67986"/>
<stop offset="1" stop-color="#8951BA"/>
</linearGradient>
<linearGradient id="paint3_linear_4003_441" x1="14.0151" y1="28.7839" x2="7.50684" y2="34.8732" gradientUnits="userSpaceOnUse">
<stop stop-color="#A267B9"/>
<stop offset="1" stop-color="#704BB4"/>
</linearGradient>
<linearGradient id="paint4_linear_4003_441" x1="34.5762" y1="8.18703" x2="30.1332" y2="12.3451" gradientUnits="userSpaceOnUse">
<stop stop-color="#F7A8A5"/>
<stop offset="0.97" stop-color="#D074C4"/>
<stop offset="1" stop-color="#CF76A9"/>
</linearGradient>
</defs>
</svg>
